<svg xmlns="http://www.w3.org/2000/svg" width="108" height="93" viewBox="0 0 108 93" fill="none">
<path d="M1.00331 17.5087C1.79905 23.2405 1.98356 29.0419 2.00663 34.8201C1.98356 40.5984 1.81058 46.3998 1.00331 52.1316C0.19605 46.3998 0.0230647 40.5984 0 34.8201C0.0230647 29.0419 0.207582 23.2405 1.00331 17.5087Z" fill="black"/>
<path d="M8.56853 10.489C9.36427 18.5762 9.54878 26.7098 9.57185 34.8201C9.54878 42.9421 9.3758 51.0757 8.56853 59.1513C7.76127 51.0641 7.58828 42.9305 7.56522 34.8201C7.58828 26.6982 7.7728 18.5762 8.56853 10.489Z" fill="black"/>
<path d="M16.1338 5.44174C17.5176 24.9925 17.5292 44.6362 16.1338 64.187C14.7383 44.6362 14.7499 24.9925 16.1338 5.44174Z" fill="black"/>
<path d="M23.6874 2.39019C25.0713 23.9831 25.0829 45.6572 23.6874 67.2501C22.292 45.6572 22.3036 23.9831 23.6874 2.39019Z" fill="black"/>
<path d="M31.2527 0C32.6365 23.1825 32.6481 46.4578 31.2527 69.6403C29.8572 46.4578 29.8688 23.1825 31.2527 0Z" fill="black"/>
<path d="M38.8179 0C40.2018 23.1825 40.2133 46.4578 38.8179 69.6403C37.4225 46.4578 37.434 23.1825 38.8179 0Z" fill="black"/>
<path d="M46.3716 0C47.7554 23.1825 47.767 46.4578 46.3716 69.6403C44.9761 46.4578 44.9877 23.1825 46.3716 0Z" fill="black"/>
<path d="M53.9368 2.8427C55.3207 24.1223 55.3322 45.4948 53.9368 66.786C52.5414 45.5064 52.5529 24.1339 53.9368 2.8427Z" fill="black"/>
<path d="M61.502 5.2909C62.8859 24.9461 62.8974 44.6942 61.502 64.3494C60.1066 44.6942 60.1181 24.9461 61.502 5.2909Z" fill="black"/>
<path d="M69.0557 10.6398C69.8514 18.6806 70.0359 26.7562 70.059 34.8201C70.0359 42.8841 69.863 50.9713 69.0557 59.0005C68.2484 50.9713 68.0754 42.8841 68.0524 34.8201C68.0754 26.7562 68.26 18.669 69.0557 10.6398Z" fill="black"/>
<path d="M76.6209 13.5405C77.4166 20.6067 77.6012 27.7192 77.6242 34.8201C77.6012 41.9211 77.4282 49.0336 76.6209 56.0998C75.8136 49.0336 75.6407 41.9211 75.6176 34.8201C75.6407 27.7192 75.8252 20.6067 76.6209 13.5405Z" fill="black"/>
<path d="M84.1861 14.608C84.9819 21.3144 85.1664 28.0673 85.1894 34.8201C85.1664 41.5614 84.9934 48.3259 84.1861 55.0323C83.3789 48.3259 83.2059 41.5614 83.1828 34.8201C83.2059 28.0789 83.3904 21.3144 84.1861 14.608Z" fill="black"/>
<path d="M91.7398 10.3265C92.5355 18.4601 92.7201 26.6401 92.7431 34.8085C92.7201 42.9769 92.5471 51.157 91.7398 59.2906C90.9326 51.157 90.7596 42.9769 90.7365 34.8085C90.7596 26.6401 90.9441 18.4601 91.7398 10.3265Z" fill="black"/>
<path d="M99.305 3.45765C100.689 24.3312 100.7 45.2975 99.305 66.171C97.9096 45.2975 97.9212 24.3312 99.305 3.45765Z" fill="black"/>
<path d="M106.87 0C108.254 23.1825 108.266 46.4578 106.87 69.6403C105.475 46.4578 105.486 23.1825 106.87 0Z" fill="black"/>
<path d="M0 92.4753V77.9856H9.05243V80.4696H2.71573V83.9678H8.55866V86.4517H2.71573V92.4753H0Z" fill="black"/>
<path d="M11.0723 92.4753V82.2083H13.6646V92.4753H11.0723ZM12.3685 81.0078C11.9022 81.0078 11.5044 80.856 11.1752 80.5524C10.8598 80.2488 10.702 79.8486 10.702 79.3518C10.702 78.855 10.8598 78.4548 11.1752 78.1512C11.5044 77.8476 11.9022 77.6958 12.3685 77.6958C12.8485 77.6958 13.2463 77.8476 13.5618 78.1512C13.8772 78.4548 14.035 78.855 14.035 79.3518C14.035 79.8486 13.8772 80.2488 13.5618 80.5524C13.2463 80.856 12.8485 81.0078 12.3685 81.0078Z" fill="black"/>
<path d="M20.7754 92.7651C19.445 92.7651 18.3546 92.4753 17.5042 91.8957C16.6538 91.3161 16.1395 90.4881 15.9612 89.4117L18.3477 88.7908C18.4437 89.2737 18.6015 89.6532 18.8209 89.9292C19.0541 90.2052 19.3353 90.4053 19.6644 90.5295C20.0073 90.6399 20.3777 90.6951 20.7754 90.6951C21.3789 90.6951 21.8247 90.5916 22.1127 90.3846C22.4007 90.1638 22.5448 89.8947 22.5448 89.5773C22.5448 89.2599 22.4076 89.0185 22.1333 88.8529C21.859 88.6735 21.4201 88.5286 20.8166 88.4182L20.2405 88.3147C19.5273 88.1767 18.8758 87.9904 18.286 87.7558C17.6962 87.5074 17.223 87.1693 16.8664 86.7415C16.5098 86.3137 16.3315 85.7617 16.3315 85.0856C16.3315 84.0644 16.7018 83.2847 17.4425 82.7465C18.1831 82.1945 19.157 81.9185 20.3639 81.9185C21.5024 81.9185 22.4488 82.1738 23.2031 82.6844C23.9575 83.195 24.4513 83.8643 24.6844 84.6923L22.2773 85.4374C22.1676 84.9131 21.9413 84.5405 21.5984 84.3197C21.2692 84.0989 20.8577 83.9885 20.3639 83.9885C19.8702 83.9885 19.493 84.0782 19.2324 84.2576C18.9718 84.4232 18.8415 84.6578 18.8415 84.9614C18.8415 85.2925 18.9787 85.5409 19.253 85.7065C19.5273 85.8583 19.8976 85.9756 20.3639 86.0584L20.94 86.1619C21.7081 86.2999 22.4007 86.4862 23.018 86.7208C23.6489 86.9416 24.1427 87.2659 24.4993 87.6937C24.8696 88.1077 25.0548 88.6735 25.0548 89.391C25.0548 90.4674 24.6639 91.3023 23.8821 91.8957C23.114 92.4753 22.0784 92.7651 20.7754 92.7651Z" fill="black"/>
<path d="M27.3264 92.4753V77.9856H29.9187V83.471H30.289C30.3987 83.2502 30.5702 83.0294 30.8033 82.8086C31.0365 82.5878 31.3451 82.4084 31.7292 82.2704C32.1269 82.1186 32.6275 82.0427 33.231 82.0427C34.0265 82.0427 34.7192 82.229 35.309 82.6016C35.9125 82.9604 36.3788 83.4641 36.708 84.1127C37.0372 84.7475 37.2018 85.4926 37.2018 86.3482V92.4753H34.6095V86.5552C34.6095 85.7824 34.4174 85.2029 34.0334 84.8165C33.6631 84.4301 33.1282 84.2369 32.4287 84.2369C31.6331 84.2369 31.0159 84.506 30.577 85.0442C30.1381 85.5685 29.9187 86.3068 29.9187 87.259V92.4753H27.3264Z" fill="black"/>
<path d="M50.145 92.7651C49.034 92.7651 48.0534 92.565 47.203 92.1648C46.3526 91.7646 45.6874 91.1919 45.2073 90.4467C44.7273 89.7015 44.4873 88.8046 44.4873 87.7558V87.1762H47.1618V87.7558C47.1618 88.6252 47.4293 89.2806 47.9642 89.7222C48.4991 90.15 49.2261 90.3639 50.145 90.3639C51.0777 90.3639 51.7703 90.1776 52.223 89.805C52.6893 89.4324 52.9225 88.9564 52.9225 88.3768C52.9225 87.9766 52.8059 87.6523 52.5727 87.4039C52.3533 87.1555 52.0241 86.9554 51.5852 86.8036C51.16 86.638 50.6388 86.4862 50.0216 86.3482L49.5484 86.2447C48.5609 86.0239 47.7105 85.7479 46.9972 85.4167C46.2977 85.0718 45.756 84.6233 45.3719 84.0713C45.0016 83.5193 44.8164 82.8017 44.8164 81.9185C44.8164 81.0354 45.0222 80.2833 45.4336 79.6623C45.8588 79.0275 46.4486 78.5445 47.203 78.2133C47.9711 77.8683 48.8695 77.6958 49.8981 77.6958C50.9268 77.6958 51.8389 77.8752 52.6344 78.234C53.4437 78.579 54.0746 79.1034 54.5272 79.8072C54.9936 80.4972 55.2267 81.3665 55.2267 82.4153V83.0363H52.5522V82.4153C52.5522 81.8633 52.4424 81.4217 52.223 81.0906C52.0172 80.7456 51.7155 80.4972 51.3177 80.3454C50.92 80.1798 50.4468 80.097 49.8981 80.097C49.0752 80.097 48.4648 80.2557 48.0671 80.5731C47.683 80.8767 47.491 81.2975 47.491 81.8357C47.491 82.1945 47.5802 82.4981 47.7585 82.7465C47.9505 82.9949 48.2317 83.2019 48.602 83.3675C48.9723 83.5331 49.4455 83.678 50.0216 83.8022L50.4948 83.9057C51.5235 84.1265 52.415 84.4094 53.1694 84.7544C53.9374 85.0994 54.5341 85.5547 54.9593 86.1205C55.3845 86.6863 55.5971 87.4108 55.5971 88.294C55.5971 89.1771 55.3707 89.9568 54.9181 90.633C54.4792 91.2954 53.8483 91.8198 53.0253 92.2062C52.2161 92.5788 51.256 92.7651 50.145 92.7651Z" fill="black"/>
<path d="M62.5601 92.7651C61.5452 92.7651 60.6331 92.5581 59.8238 92.1441C59.0146 91.7301 58.3768 91.1298 57.9105 90.3432C57.4441 89.5566 57.211 88.6114 57.211 87.5074V87.1762C57.211 86.0722 57.4441 85.127 57.9105 84.3404C58.3768 83.5538 59.0146 82.9535 59.8238 82.5395C60.6331 82.1255 61.5452 81.9185 62.5601 81.9185C63.5751 81.9185 64.4872 82.1255 65.2964 82.5395C66.1057 82.9535 66.7435 83.5538 67.2098 84.3404C67.6761 85.127 67.9093 86.0722 67.9093 87.1762V87.5074C67.9093 88.6114 67.6761 89.5566 67.2098 90.3432C66.7435 91.1298 66.1057 91.7301 65.2964 92.1441C64.4872 92.5581 63.5751 92.7651 62.5601 92.7651ZM62.5601 90.4467C63.3556 90.4467 64.014 90.1914 64.5352 89.6808C65.0564 89.1565 65.317 88.4113 65.317 87.4453V87.2383C65.317 86.2723 65.0564 85.534 64.5352 85.0235C64.0277 84.4991 63.3694 84.2369 62.5601 84.2369C61.7646 84.2369 61.1063 84.4991 60.5851 85.0235C60.0639 85.534 59.8033 86.2723 59.8033 87.2383V87.4453C59.8033 88.4113 60.0639 89.1565 60.5851 89.6808C61.1063 90.1914 61.7646 90.4467 62.5601 90.4467Z" fill="black"/>
<path d="M74.1905 92.6409C73.395 92.6409 72.6955 92.4615 72.092 92.1027C71.5022 91.7301 71.0428 91.2195 70.7136 90.5709C70.3844 89.9223 70.2198 89.1771 70.2198 88.3354V82.2083H72.8121V88.1284C72.8121 88.9012 72.9973 89.4807 73.3676 89.8671C73.7516 90.2535 74.2934 90.4467 74.9929 90.4467C75.7884 90.4467 76.4056 90.1845 76.8446 89.6601C77.2835 89.122 77.5029 88.3768 77.5029 87.4246V82.2083H80.0952V92.4753H77.5441V91.1298H77.1737C77.0091 91.4748 76.7005 91.8129 76.2479 92.1441C75.7953 92.4753 75.1095 92.6409 74.1905 92.6409Z" fill="black"/>
<path d="M82.9799 92.4753V82.2083H85.531V83.5538H85.9013C86.0659 83.195 86.3745 82.8569 86.8271 82.5395C87.2798 82.2083 87.9655 82.0427 88.8845 82.0427C89.68 82.0427 90.3727 82.229 90.9625 82.6016C91.5659 82.9604 92.0323 83.4641 92.3615 84.1127C92.6906 84.7475 92.8552 85.4926 92.8552 86.3482V92.4753H90.2629V86.5552C90.2629 85.7824 90.0709 85.2029 89.6869 84.8165C89.3166 84.4301 88.7816 84.2369 88.0821 84.2369C87.2866 84.2369 86.6694 84.506 86.2305 85.0442C85.7916 85.5685 85.5721 86.3068 85.5721 87.259V92.4753H82.9799Z" fill="black"/>
<path d="M99.7723 92.7651C98.9631 92.7651 98.2019 92.565 97.4886 92.1648C96.7892 91.7508 96.2268 91.1505 95.8016 90.3639C95.3764 89.5773 95.1638 88.6252 95.1638 87.5074V87.1762C95.1638 86.0584 95.3764 85.1063 95.8016 84.3197C96.2268 83.5331 96.7892 82.9397 97.4886 82.5395C98.1882 82.1255 98.9494 81.9185 99.7723 81.9185C100.39 81.9185 100.904 81.9944 101.315 82.1462C101.741 82.2842 102.083 82.4636 102.344 82.6844C102.605 82.9052 102.804 83.1398 102.941 83.3882H103.311V77.9856H105.903V92.4753H103.352V91.2333H102.982C102.749 91.6197 102.385 91.9716 101.891 92.289C101.411 92.6064 100.705 92.7651 99.7723 92.7651ZM100.554 90.4881C101.35 90.4881 102.015 90.2328 102.55 89.7222C103.085 89.1979 103.352 88.4389 103.352 87.4453V87.2383C103.352 86.2447 103.085 85.4926 102.55 84.9821C102.029 84.4577 101.363 84.1955 100.554 84.1955C99.7586 84.1955 99.0934 84.4577 98.5585 84.9821C98.0236 85.4926 97.7561 86.2447 97.7561 87.2383V87.4453C97.7561 88.4389 98.0236 89.1979 98.5585 89.7222C99.0934 90.2328 99.7586 90.4881 100.554 90.4881Z" fill="black"/>
</svg>